<?xml version="1.0" encoding="UTF-8" standalone="no"?>
<svg width="57" height="88" xmlns="http://www.w3.org/2000/svg" xmlns:xlink="http://www.w3.org/1999/xlink">
	<symbol id="suitC" width="8" height="10">
		<path d="M 3 0 h 2 l 1 1 v 2 l -1 1 h 2 l 1 1 v 2 l -1 1 h -1 l -1 -1 l 1 3 h -4 l 1 -3 l -1 1 h -1 l -1 -1 v -2 l 1 -1 h 2 l -1 -1 v -2 z"></path>
	</symbol>
	<symbol id="suitS" width="8" height="10">
		<path d="M 4 0 l 4 5 v 2 l -1 1 h -1 l -1 -1 l 1 3 h -4 l 1 -3 l -1 1 h -1 l -1 -1 v -2 z"></path>
	</symbol>
	<symbol id="suitH" width="8" height="10">
		<path d="M 2 0 l 2 2 l 2 -2 l 2 2 v 3 l -4 5 l -4 -5 v -3 z"></path>
	</symbol>
	<symbol id="suitD" width="8" height="10">
		<path d="M 4 0 l 4 5 l -4 5 l -4 -5 z"></path>
	</symbol>
	
	<rect x="1.5" y="1.5" width="54" height="85" fill="#fff"></rect>
	<path d="M 2 0 h 53 l 2 2 v 84 l -2 2 h -53 l -2 -2 v -84 z m 0 2 v 84 h 53 v -84 z"></path>
	<g style="fill: #f00;">
		<use xlink:href="#suitH" transform="translate(20.5, 16) scale(2)"></use>
		<use xlink:href="#suitD" transform="translate(20.5, 52) scale(2)"></use>
	</g>
	<g style="fill: #000;">
		<!--<use xlink:href="#suit" transform="translate(20.5, 34) scale(2)"></use>-->
		<use xlink:href="#suitC" transform="translate(6.5, 34) scale(2)"></use>
		<use xlink:href="#suitS" transform="translate(34.5, 34) scale(2)"></use>
	</g>
</svg>
